<svg width="240.000000" height="115.000000" viewBox="0 0 240 115" fill="none" xmlns="http://www.w3.org/2000/svg" xmlns:xlink="http://www.w3.org/1999/xlink">
	<desc>
			Created with Pixso.
	</desc>
	<defs/>
	<circle id="Oval 1" r="5.000000" transform="matrix(1 0 0 1 5 5)" fill="#000000"/>
	<circle id="Oval 1" r="5.000000" transform="matrix(1 0 0 1 26 5)" fill="#000000"/>
	<circle id="Oval 1" r="5.000000" transform="matrix(1 0 0 1 47 5)" fill="#000000"/>
	<circle id="Oval 1" r="5.000000" transform="matrix(1 0 0 1 68 5)" fill="#000000"/>
	<circle id="Oval 1" r="5.000000" transform="matrix(1 0 0 1 89 5)" fill="#000000"/>
	<circle id="Oval 1" r="5.000000" transform="matrix(1 0 0 1 110 5)" fill="#000000"/>
	<circle id="Oval 1" r="5.000000" transform="matrix(1 0 0 1 131 5)" fill="#000000"/>
	<circle id="Oval 1" r="5.000001" transform="matrix(1 0 0 1 152 5)" fill="#000000"/>
	<circle id="Oval 1" r="5.000001" transform="matrix(1 0 0 1 173 5)" fill="#000000"/>
	<circle id="Oval 1" r="5.000000" transform="matrix(1 0 0 1 5 26)" fill="#000000"/>
	<circle id="Oval 1" r="5.000000" transform="matrix(1 0 0 1 26 26)" fill="#000000"/>
	<circle id="Oval 1" r="5.000000" transform="matrix(1 0 0 1 47 26)" fill="#000000"/>
	<circle id="Oval 1" r="5.000000" transform="matrix(1 0 0 1 68 26)" fill="#000000"/>
	<circle id="Oval 1" r="5.000000" transform="matrix(1 0 0 1 89 26)" fill="#000000"/>
	<circle id="Oval 1" r="5.000000" transform="matrix(1 0 0 1 110 26)" fill="#000000"/>
	<circle id="Oval 1" r="5.000000" transform="matrix(1 0 0 1 131 26)" fill="#000000"/>
	<circle id="Oval 1" r="5.000001" transform="matrix(1 0 0 1 152 26)" fill="#000000"/>
	<circle id="Oval 1" r="5.000001" transform="matrix(1 0 0 1 173 26)" fill="#000000"/>
	<circle id="Oval 1" r="5.000000" transform="matrix(1 0 0 1 5 47)" fill="#000000"/>
	<circle id="Oval 1" r="5.000000" transform="matrix(1 0 0 1 26 47)" fill="#000000"/>
	<circle id="Oval 1" r="5.000000" transform="matrix(1 0 0 1 47 47)" fill="#000000"/>
	<circle id="Oval 1" r="5.000000" transform="matrix(1 0 0 1 68 47)" fill="#000000"/>
	<circle id="Oval 1" r="5.000000" transform="matrix(1 0 0 1 89 47)" fill="#000000"/>
	<circle id="Oval 1" r="5.000000" transform="matrix(1 0 0 1 110 47)" fill="#000000"/>
	<circle id="Oval 1" r="5.000000" transform="matrix(1 0 0 1 131 47)" fill="#000000"/>
	<circle id="Oval 1" r="5.000001" transform="matrix(1 0 0 1 152 47)" fill="#000000"/>
	<circle id="Oval 1" r="5.000001" transform="matrix(1 0 0 1 173 47)" fill="#000000"/>
	<circle id="Oval 1" r="5.000000" transform="matrix(1 0 0 1 5 68)" fill="#000000"/>
	<circle id="Oval 1" r="5.000000" transform="matrix(1 0 0 1 26 68)" fill="#000000"/>
	<circle id="Oval 1" r="5.000000" transform="matrix(1 0 0 1 47 68)" fill="#000000"/>
	<circle id="Oval 1" r="5.000000" transform="matrix(1 0 0 1 68 68)" fill="#000000"/>
	<circle id="Oval 1" r="5.000000" transform="matrix(1 0 0 1 89 68)" fill="#000000"/>
	<circle id="Oval 1" r="5.000000" transform="matrix(1 0 0 1 110 68)" fill="#000000"/>
	<circle id="Oval 1" r="5.000000" transform="matrix(1 0 0 1 131 68)" fill="#000000"/>
	<circle id="Oval 1" r="5.000001" transform="matrix(1 0 0 1 152 68)" fill="#000000"/>
	<circle id="Oval 1" r="5.000001" transform="matrix(1 0 0 1 173 68)" fill="#000000"/>
	<circle id="Oval 1" r="5.000000" transform="matrix(1 0 0 1 5 89)" fill="#000000"/>
	<circle id="Oval 1" r="5.000000" transform="matrix(1 0 0 1 26 89)" fill="#000000"/>
	<circle id="Oval 1" r="5.000000" transform="matrix(1 0 0 1 47 89)" fill="#000000"/>
	<circle id="Oval 1" r="5.000000" transform="matrix(1 0 0 1 68 89)" fill="#000000"/>
	<circle id="Oval 1" r="5.000000" transform="matrix(1 0 0 1 89 89)" fill="#000000"/>
	<circle id="Oval 1" r="5.000000" transform="matrix(1 0 0 1 110 89)" fill="#000000"/>
	<circle id="Oval 1" r="5.000000" transform="matrix(1 0 0 1 131 89)" fill="#000000"/>
	<circle id="Oval 1" r="5.000001" transform="matrix(1 0 0 1 152 89)" fill="#000000"/>
	<circle id="Oval 1" r="5.000001" transform="matrix(1 0 0 1 173 89)" fill="#000000"/>
	<circle id="Oval 1" r="5.000000" transform="matrix(1 0 0 1 5 110)" fill="#000000"/>
	<circle id="Oval 1" r="5.000000" transform="matrix(1 0 0 1 26 110)" fill="#000000"/>
	<circle id="Oval 1" r="5.000000" transform="matrix(1 0 0 1 47 110)" fill="#000000"/>
	<circle id="Oval 1" r="5.000000" transform="matrix(1 0 0 1 68 110)" fill="#000000"/>
	<circle id="Oval 1" r="5.000000" transform="matrix(1 0 0 1 89 110)" fill="#000000"/>
	<circle id="Oval 1" r="5.000000" transform="matrix(1 0 0 1 110 110)" fill="#000000"/>
	<circle id="Oval 1" r="5.000000" transform="matrix(1 0 0 1 131 110)" fill="#000000"/>
	<circle id="Oval 1" r="5.000001" transform="matrix(1 0 0 1 152 110)" fill="#000000"/>
	<circle id="Oval 1" r="5.000001" transform="matrix(1 0 0 1 173 110)" fill="#000000"/>
	<ellipse id="Oval 1" rx="5.000000" ry="5.000001" transform="matrix(1 0 0 1 193 5)" fill="#000000"/>
	<ellipse id="Oval 1" rx="5.000002" ry="5.000001" transform="matrix(1 0 0 1 214 5)" fill="#000000"/>
	<ellipse id="Oval 1" rx="5.000002" ry="5.000001" transform="matrix(1 0 0 1 235 5)" fill="#000000"/>
	<ellipse id="Oval 1" rx="5.000000" ry="5.000001" transform="matrix(1 0 0 1 193 26)" fill="#000000"/>
	<ellipse id="Oval 1" rx="5.000002" ry="5.000001" transform="matrix(1 0 0 1 214 26)" fill="#000000"/>
	<ellipse id="Oval 1" rx="5.000002" ry="5.000001" transform="matrix(1 0 0 1 235 26)" fill="#000000"/>
	<ellipse id="Oval 1" rx="5.000000" ry="5.000001" transform="matrix(1 0 0 1 193 47)" fill="#000000"/>
	<ellipse id="Oval 1" rx="5.000002" ry="5.000001" transform="matrix(1 0 0 1 214 47)" fill="#000000"/>
	<ellipse id="Oval 1" rx="5.000002" ry="5.000001" transform="matrix(1 0 0 1 235 47)" fill="#000000"/>
	<ellipse id="Oval 1" rx="5.000000" ry="5.000001" transform="matrix(1 0 0 1 193 68)" fill="#000000"/>
	<ellipse id="Oval 1" rx="5.000002" ry="5.000001" transform="matrix(1 0 0 1 214 68)" fill="#000000"/>
	<ellipse id="Oval 1" rx="5.000002" ry="5.000001" transform="matrix(1 0 0 1 235 68)" fill="#000000"/>
	<ellipse id="Oval 1" rx="5.000000" ry="5.000001" transform="matrix(1 0 0 1 193 89)" fill="#000000"/>
	<ellipse id="Oval 1" rx="5.000002" ry="5.000001" transform="matrix(1 0 0 1 214 89)" fill="#000000"/>
	<ellipse id="Oval 1" rx="5.000002" ry="5.000001" transform="matrix(1 0 0 1 235 89)" fill="#000000"/>
	<ellipse id="Oval 1" rx="5.000000" ry="5.000001" transform="matrix(1 0 0 1 193 110)" fill="#000000"/>
	<ellipse id="Oval 1" rx="5.000002" ry="5.000001" transform="matrix(1 0 0 1 214 110)" fill="#000000"/>
	<ellipse id="Oval 1" rx="5.000002" ry="5.000001" transform="matrix(1 0 0 1 235 110)" fill="#000000"/>
</svg>
